inDegrees=yes
name=ik_Shooting_orientation_zug2
DataType=double
version=3
OpenSimVersion=4.3-2021-08-27-4bc7ad9
endheader
time	pelvis_tilt	pelvis_list	pelvis_rotation	pelvis_tx	pelvis_ty	pelvis_tz	hip_flexion_r	hip_adduction_r	hip_rotation_r	knee_angle_r	knee_angle_r_beta	ankle_angle_r	subtalar_angle_r	mtp_angle_r	hip_flexion_l	hip_adduction_l	hip_rotation_l	knee_angle_l	knee_angle_l_beta	ankle_angle_l	subtalar_angle_l	mtp_angle_l	lumbar_extension	lumbar_bending	lumbar_rotation	arm_flex_r	arm_add_r	arm_rot_r	elbow_flex_r	pro_sup_r	wrist_flex_r	wrist_dev_r	arm_flex_l	arm_add_l	arm_rot_l	elbow_flex_l	pro_sup_l	wrist_flex_l	wrist_dev_l
7.5	-0.8056773663843061	-1.811002827988853	148.1047905965124	0	0.9399999999999999	0	44.78902352175184	-10.00013170995404	0	59.91686202514255	1.045746519801895	-5.000006419377418	0	0	44.78902352175184	-10.00013170995404	0	59.91686202514255	1.045746519801895	-5.000006419377418	0	0	1.754517128501298	4.417103965312721	13.6399177444046	-15.87925322946321	-109.9448722974743	-89.98016767070301	0.008177153844156286	45.00204260448972	0	0	0	-13.95019403641916	0	75.0935511798592	45.00204260448972	0	0
7.51	-0.8114578134499325	-1.802069385867729	148.0977697290359	0	0.9399999999999999	0	44.78942367110146	-10.00013104552802	0	59.91701251807576	1.04574914639908	-5.000006378528052	0	0	44.78942367110146	-10.00013104552802	0	59.91701251807576	1.04574914639908	-5.000006378528052	0	0	1.896546924987388	3.18204859173426	12.16164461364975	-13.00162881594624	-111.2961936376487	-89.97941881037518	0.00725652632689378	45.00203403049913	0	0	0	-13.95136363476681	0	75.09337408055495	45.00203403049913	0	0
7.52	-0.8171952841907359	-1.816544086381703	148.0992524116756	0	0.9399999999999999	0	44.79587247074377	-10.00012065838224	0	59.91907596965047	1.045785160423015	-5.000005762171419	0	0	44.79587247074377	-10.00012065838224	0	59.91907596965047	1.045785160423015	-5.000005762171419	0	0	1.97676261132042	2.724241079962444	10.55819924884256	-12.61913867776597	-112.7360628069525	-89.97832563594434	0.007456965082214569	45.00189695474569	0	0	0	-13.9691977327376	0	75.09051995195145	45.00189695474569	0	0
7.53	-0.8320361371139008	-1.807728334181479	148.1015082415565	0	0.9399999999999999	0	44.795961236153	-10.00012043902091	0	59.9191009531427	1.045785596467213	-5.000005747630684	0	0	44.795961236153	-10.00012043902091	0	59.9191009531427	1.045785596467213	-5.000005747630684	0	0	2.021380545548249	2.065065040612517	9.402516367459986	-11.06108780598623	-117.4780174795254	-89.98007892222704	0.00647882841106986	45.0018943153089	0	0	0	-13.96940535824435	0	75.09048066610237	45.0018943153089	0	0
7.54	-0.832613281447408	-1.810793174397487	148.0941590750832	0	0.9399999999999999	0	44.82309465216719	-10.00009550214398	0	59.92842508863952	1.045948333331534	-5.000004471823981	0	0	44.82309465216719	-10.00009550214398	0	59.92842508863952	1.045948333331534	-5.000004471823981	0	0	2.099773625978935	0.9062027866840495	8.304877648900352	-9.012274798161723	-119.7868063069016	-89.97948021029659	0.005963089974505557	45.00152126848403	0	0	0	-14.05926804673329	0	75.07847180198185	45.00152126848403	0	0
7.55	-0.837456618945108	-1.816060087790778	148.0921272502936	0	0.9399999999999999	0	44.82980516739232	-10.00008684429846	0	59.93069073071116	1.045987876245356	-5.000003977457289	0	0	44.82980516739232	-10.00008684429846	0	59.93069073071116	1.045987876245356	-5.000003977457289	0	0	2.243706922696961	-2.133985600517736	8.517717400527928	-6.735852187305921	-119.9618375616534	-89.97935487956481	0.005295031342214979	45.00140267667956	0	0	0	-14.07996963299751	0	75.07550183478746	45.00140267667956	0	0
7.56	-0.8271417356461779	-1.841719327196718	148.0729609920524	0	0.9399999999999999	0	44.82984466034728	-10.00008677377936	0	59.93070336533071	1.045988096761067	-5.000003973085851	0	0	44.82984466034728	-10.00008677377936	0	59.93070336533071	1.045988096761067	-5.000003973085851	0	0	2.338728045260057	-2.965139476659008	9.486041563722312	-6.087946890107043	-119.9696444389365	-89.98084168225662	0.005065316246524919	45.00140177621396	0	0	0	-14.080078843952	0	75.07548435589189	45.00140177621396	0	0
7.57	-0.8453870688289887	-1.84028142719437	148.0766326097793	0	0.9399999999999999	0	44.82990714686002	-10.00008666210794	0	59.93072333177454	1.045988445241252	-5.000003966163479	0	0	44.82990714686002	-10.00008666210794	0	59.93072333177454	1.045988445241252	-5.000003966163479	0	0	2.369356333570973	-3.601658447589096	9.894389546627501	-6.494242805190821	-119.9744809438932	-89.98126034286739	0.005156421932266692	45.00140035035999	0	0	0	-14.0802515067931	0	75.0754567004475	45.00140035035999	0	0
